<?xml version="1.0" encoding="UTF-8" standalone="no"?>
<svg
   xmlns:dc="http://purl.org/dc/elements/1.1/"
   xmlns:cc="http://creativecommons.org/ns#"
   xmlns:rdf="http://www.w3.org/1999/02/22-rdf-syntax-ns#"
   xmlns:svg="http://www.w3.org/2000/svg"
   xmlns="http://www.w3.org/2000/svg"
   xmlns:sodipodi="http://sodipodi.sourceforge.net/DTD/sodipodi-0.dtd"
   xmlns:inkscape="http://www.inkscape.org/namespaces/inkscape"
   viewBox="0 0 1030.4834 505.26071"
   id="svg4556"
   version="1.1"
   inkscape:version="0.91 r13725"
   sodipodi:docname="agediff_plot_final.svg"
   width="1030.4834"
   height="505.26071">
  <metadata
     id="metadata4690">
    <rdf:RDF>
      <cc:Work
         rdf:about="">
        <dc:format>image/svg+xml</dc:format>
        <dc:type
           rdf:resource="http://purl.org/dc/dcmitype/StillImage" />
        <dc:title></dc:title>
      </cc:Work>
    </rdf:RDF>
  </metadata>
  <sodipodi:namedview
     pagecolor="#ffffff"
     bordercolor="#666666"
     borderopacity="1"
     objecttolerance="10"
     gridtolerance="10"
     guidetolerance="10"
     inkscape:pageopacity="0"
     inkscape:pageshadow="2"
     inkscape:window-width="1859"
     inkscape:window-height="1056"
     id="namedview4688"
     showgrid="false"
     inkscape:zoom="1"
     inkscape:cx="554.5"
     inkscape:cy="88"
     inkscape:window-x="61"
     inkscape:window-y="24"
     inkscape:window-maximized="1"
     inkscape:current-layer="svg4556"
     fit-margin-top="0"
     fit-margin-left="0"
     fit-margin-right="0"
     fit-margin-bottom="0"
     showguides="false" />
  <defs
     id="defs4558">
    <marker
       inkscape:stockid="Arrow1Mend"
       orient="auto"
       refY="0"
       refX="0"
       id="marker6983"
       style="overflow:visible"
       inkscape:isstock="true">
      <path
         id="path6985"
         d="M 0,0 5,-5 -12.5,0 5,5 0,0 Z"
         style="fill:#ff0000;fill-opacity:1;fill-rule:evenodd;stroke:#ff0000;stroke-width:1pt;stroke-linecap:round;stroke-linejoin:round;stroke-miterlimit:10;stroke-opacity:1"
         transform="matrix(-0.4,0,0,-0.4,-4,0)"
         inkscape:connector-curvature="0" />
    </marker>
    <marker
       inkscape:stockid="Arrow1Mend"
       orient="auto"
       refY="0"
       refX="0"
       id="marker6859"
       style="overflow:visible"
       inkscape:isstock="true">
      <path
         id="path6861"
         d="M 0,0 5,-5 -12.5,0 5,5 0,0 Z"
         style="fill:#ff0000;fill-opacity:1;fill-rule:evenodd;stroke:#ff0000;stroke-width:1pt;stroke-linecap:round;stroke-linejoin:round;stroke-miterlimit:10;stroke-opacity:1"
         transform="matrix(-0.4,0,0,-0.4,-4,0)"
         inkscape:connector-curvature="0" />
    </marker>
    <marker
       inkscape:stockid="Arrow1Mend"
       orient="auto"
       refY="0"
       refX="0"
       id="marker6741"
       style="overflow:visible"
       inkscape:isstock="true">
      <path
         id="path6743"
         d="M 0,0 5,-5 -12.5,0 5,5 0,0 Z"
         style="fill:#ff0000;fill-opacity:1;fill-rule:evenodd;stroke:#ff0000;stroke-width:1pt;stroke-linecap:round;stroke-linejoin:round;stroke-miterlimit:10;stroke-opacity:1"
         transform="matrix(-0.4,0,0,-0.4,-4,0)"
         inkscape:connector-curvature="0" />
    </marker>
    <marker
       inkscape:stockid="Arrow1Mend"
       orient="auto"
       refY="0"
       refX="0"
       id="marker6629"
       style="overflow:visible"
       inkscape:isstock="true">
      <path
         id="path6631"
         d="M 0,0 5,-5 -12.5,0 5,5 0,0 Z"
         style="fill:#ff0000;fill-opacity:1;fill-rule:evenodd;stroke:#ff0000;stroke-width:1pt;stroke-linecap:round;stroke-linejoin:round;stroke-miterlimit:10;stroke-opacity:1"
         transform="matrix(-0.4,0,0,-0.4,-4,0)"
         inkscape:connector-curvature="0" />
    </marker>
    <marker
       inkscape:stockid="Arrow1Mend"
       orient="auto"
       refY="0"
       refX="0"
       id="marker6523"
       style="overflow:visible"
       inkscape:isstock="true">
      <path
         id="path6525"
         d="M 0,0 5,-5 -12.5,0 5,5 0,0 Z"
         style="fill:#ff0000;fill-opacity:1;fill-rule:evenodd;stroke:#ff0000;stroke-width:1pt;stroke-linecap:round;stroke-linejoin:round;stroke-miterlimit:10;stroke-opacity:1"
         transform="matrix(-0.4,0,0,-0.4,-4,0)"
         inkscape:connector-curvature="0" />
    </marker>
    <marker
       inkscape:stockid="Arrow1Mend"
       orient="auto"
       refY="0"
       refX="0"
       id="marker6423"
       style="overflow:visible"
       inkscape:isstock="true">
      <path
         id="path6425"
         d="M 0,0 5,-5 -12.5,0 5,5 0,0 Z"
         style="fill:#ff0000;fill-opacity:1;fill-rule:evenodd;stroke:#ff0000;stroke-width:1pt;stroke-linecap:round;stroke-linejoin:round;stroke-miterlimit:10;stroke-opacity:1"
         transform="matrix(-0.4,0,0,-0.4,-4,0)"
         inkscape:connector-curvature="0" />
    </marker>
    <style
       type="text/css"
       id="style4560"><![CDATA[
    line, polyline, path, rect, circle {
      fill: none;
      stroke: #000000;
      stroke-linecap: round;
      stroke-linejoin: round;
      stroke-miterlimit: 10.00;
    }
  ]]></style>
    <marker
       inkscape:isstock="true"
       style="overflow:visible"
       id="marker9269"
       refX="0"
       refY="0"
       orient="auto"
       inkscape:stockid="Arrow1Mend"
       inkscape:collect="always">
      <path
         inkscape:connector-curvature="0"
         transform="matrix(-0.4,0,0,-0.4,-4,0)"
         style="fill:#ff0000;fill-opacity:1;fill-rule:evenodd;stroke:#ff0000;stroke-width:1pt;stroke-linecap:round;stroke-linejoin:round;stroke-miterlimit:10;stroke-opacity:1"
         d="M 0,0 5,-5 -12.5,0 5,5 0,0 Z"
         id="path9271" />
    </marker>
  </defs>
  <defs
     id="defs4566">
    <clipPath
       id="cpNTQuMDA1NHw0OTguNTIxfDQ2Ni4yNXw1LjQ3OTQ1">
      <rect
         x="54.009998"
         y="5.48"
         width="444.51999"
         height="460.76999"
         id="rect4569"
         style="fill:none;stroke:#000000;stroke-linecap:round;stroke-linejoin:round;stroke-miterlimit:10" />
    </clipPath>
  </defs>
  <defs
     id="defs4647">
    <clipPath
       id="cpMHw1MDR8NTA0fDA=">
      <rect
         x="0"
         y="0"
         width="504"
         height="504"
         id="rect4650"
         style="fill:none;stroke:#000000;stroke-linecap:round;stroke-linejoin:round;stroke-miterlimit:10" />
    </clipPath>
  </defs>
  <polyline
     points="54.01,391.25 498.52,391.25 "
     style="fill:none;stroke:#ebebeb;stroke-width:0.52999997;stroke-linecap:butt;stroke-linejoin:round;stroke-miterlimit:10"
     clip-path="url(#cpNTQuMDA1NHw0OTguNTIxfDQ2Ni4yNXw1LjQ3OTQ1)"
     id="polyline4573"
     transform="translate(531.95337,-5.48)" />
  <polyline
     points="54.01,235.25 498.52,235.25 "
     style="fill:none;stroke:#ebebeb;stroke-width:0.52999997;stroke-linecap:butt;stroke-linejoin:round;stroke-miterlimit:10"
     clip-path="url(#cpNTQuMDA1NHw0OTguNTIxfDQ2Ni4yNXw1LjQ3OTQ1)"
     id="polyline4575"
     transform="translate(531.95337,-5.48)" />
  <polyline
     points="54.01,79.26 498.52,79.26 "
     style="fill:none;stroke:#ebebeb;stroke-width:0.52999997;stroke-linecap:butt;stroke-linejoin:round;stroke-miterlimit:10"
     clip-path="url(#cpNTQuMDA1NHw0OTguNTIxfDQ2Ni4yNXw1LjQ3OTQ1)"
     id="polyline4577"
     transform="translate(531.95337,-5.48)" />
  <path
     transform="translate(531.95337,-5.48)"
     style="fill:none;stroke:#ebebeb;stroke-width:0.52999997;stroke-linecap:butt;stroke-linejoin:round;stroke-miterlimit:10"
     clip-path="url(#cpNTQuMDA1NHw0OTguNTIxfDQ2Ni4yNXw1LjQ3OTQ1)"
     d="m 106.92,466.25 0,-444.016587"
     id="polyline4579"
     inkscape:connector-curvature="0"
     sodipodi:nodetypes="cc" />
  <path
     transform="translate(531.95337,-5.48)"
     style="fill:none;stroke:#ebebeb;stroke-width:0.52999997;stroke-linecap:butt;stroke-linejoin:round;stroke-miterlimit:10"
     clip-path="url(#cpNTQuMDA1NHw0OTguNTIxfDQ2Ni4yNXw1LjQ3OTQ1)"
     d="m 212.76,466.25 0,-443.508908"
     id="polyline4581"
     inkscape:connector-curvature="0"
     sodipodi:nodetypes="cc" />
  <path
     transform="translate(531.95337,-5.48)"
     style="fill:none;stroke:#ebebeb;stroke-width:0.52999997;stroke-linecap:butt;stroke-linejoin:round;stroke-miterlimit:10"
     clip-path="url(#cpNTQuMDA1NHw0OTguNTIxfDQ2Ni4yNXw1LjQ3OTQ1)"
     d="m 318.6,466.25 0,-444.524266"
     id="polyline4583"
     inkscape:connector-curvature="0"
     sodipodi:nodetypes="cc" />
  <path
     transform="translate(531.95337,-5.48)"
     style="fill:none;stroke:#ebebeb;stroke-width:0.52999997;stroke-linecap:butt;stroke-linejoin:round;stroke-miterlimit:10"
     clip-path="url(#cpNTQuMDA1NHw0OTguNTIxfDQ2Ni4yNXw1LjQ3OTQ1)"
     d="m 424.43,466.25 0,-444.524266"
     id="polyline4585"
     inkscape:connector-curvature="0"
     sodipodi:nodetypes="cc" />
  <polyline
     points="54.01,313.25 498.52,313.25 "
     style="fill:none;stroke:#ebebeb;stroke-width:1.07000005;stroke-linecap:butt;stroke-linejoin:round;stroke-miterlimit:10"
     clip-path="url(#cpNTQuMDA1NHw0OTguNTIxfDQ2Ni4yNXw1LjQ3OTQ1)"
     id="polyline4587"
     transform="translate(531.95337,-5.48)" />
  <polyline
     points="54.01,157.25 498.52,157.25 "
     style="fill:none;stroke:#ebebeb;stroke-width:1.07000005;stroke-linecap:butt;stroke-linejoin:round;stroke-miterlimit:10"
     clip-path="url(#cpNTQuMDA1NHw0OTguNTIxfDQ2Ni4yNXw1LjQ3OTQ1)"
     id="polyline4589"
     transform="translate(531.95337,-5.48)" />
  <path
     transform="translate(531.95337,-5.48)"
     style="fill:none;stroke:#ebebeb;stroke-width:1.07000005;stroke-linecap:butt;stroke-linejoin:round;stroke-miterlimit:10"
     clip-path="url(#cpNTQuMDA1NHw0OTguNTIxfDQ2Ni4yNXw1LjQ3OTQ1)"
     d="m 54.01,466.25 0,-443.508908"
     id="polyline4591"
     inkscape:connector-curvature="0"
     sodipodi:nodetypes="cc" />
  <path
     transform="translate(531.95337,-5.48)"
     style="fill:none;stroke:#ebebeb;stroke-width:1.07000005;stroke-linecap:butt;stroke-linejoin:round;stroke-miterlimit:10"
     clip-path="url(#cpNTQuMDA1NHw0OTguNTIxfDQ2Ni4yNXw1LjQ3OTQ1)"
     d="m 159.84,466.25 0,-444.016587"
     id="polyline4593"
     inkscape:connector-curvature="0"
     sodipodi:nodetypes="cc" />
  <path
     transform="translate(531.95337,-5.48)"
     style="fill:none;stroke:#ebebeb;stroke-width:1.07000005;stroke-linecap:butt;stroke-linejoin:round;stroke-miterlimit:10"
     clip-path="url(#cpNTQuMDA1NHw0OTguNTIxfDQ2Ni4yNXw1LjQ3OTQ1)"
     d="m 265.68,466.25 0,-443.508908"
     id="polyline4595"
     inkscape:connector-curvature="0"
     sodipodi:nodetypes="cc" />
  <path
     transform="translate(531.95337,-5.48)"
     style="fill:none;stroke:#ebebeb;stroke-width:1.07000005;stroke-linecap:butt;stroke-linejoin:round;stroke-miterlimit:10"
     clip-path="url(#cpNTQuMDA1NHw0OTguNTIxfDQ2Ni4yNXw1LjQ3OTQ1)"
     d="m 371.52,466.25 0,-443.508908"
     id="polyline4597"
     inkscape:connector-curvature="0"
     sodipodi:nodetypes="cc" />
  <path
     transform="translate(531.95337,-5.48)"
     style="fill:none;stroke:#ebebeb;stroke-width:1.07000005;stroke-linecap:butt;stroke-linejoin:round;stroke-miterlimit:10"
     clip-path="url(#cpNTQuMDA1NHw0OTguNTIxfDQ2Ni4yNXw1LjQ3OTQ1)"
     d="m 477.35,466.25 0,-444.524266"
     id="polyline4599"
     inkscape:connector-curvature="0"
     sodipodi:nodetypes="cc" />
  <polyline
     points="55.08,157.25 55.26,160.10 55.45,145.89 55.63,140.26 55.82,136.68 56.01,152.60 56.19,148.34 56.38,136.84 56.56,144.14 56.75,155.58 56.93,142.80 57.12,146.75 57.30,154.44 57.49,177.84 57.68,165.96 57.86,155.10 58.05,155.84 58.23,129.50 58.42,130.72 58.60,131.94 58.79,133.81 58.98,135.87 59.16,137.99 59.35,140.11 59.53,142.01 59.72,122.75 59.90,120.78 60.09,127.20 60.27,136.92 60.46,133.18 60.65,122.06 60.83,133.85 61.02,126.23 61.20,114.81 61.39,114.89 61.57,115.49 61.76,116.62 61.95,118.42 62.13,120.45 62.32,122.55 62.50,124.56 62.69,126.62 62.87,128.63 63.06,130.57 63.24,132.28 63.43,134.00 63.62,135.62 63.80,136.99 63.99,138.57 64.17,140.27 64.36,142.00 64.54,143.92 64.73,145.82 64.91,147.52 65.10,137.53 65.29,136.08 65.47,138.08 65.66,140.94 65.84,143.29 66.03,145.07 66.21,147.96 66.40,151.91 66.59,157.86 66.77,150.83 66.96,143.02 67.14,144.89 67.33,146.79 67.51,148.78 67.70,150.76 67.88,152.86 68.07,154.96 68.26,156.96 68.44,158.93 68.63,160.77 68.81,162.52 69.00,164.19 69.18,166.05 69.37,167.86 69.56,167.76 69.74,166.69 69.93,166.55 70.11,166.75 70.30,168.63 70.48,170.29 70.67,170.02 70.85,168.28 71.04,166.30 71.23,165.76 71.41,167.50 71.60,169.33 71.78,150.15 71.97,150.22 72.15,162.47 72.34,164.00 72.52,165.22 72.71,158.57 72.90,149.67 73.08,151.35 73.27,153.17 73.45,155.09 73.64,157.25 "
     style="fill:none;stroke:#f8766d;stroke-width:1.07000005;stroke-linecap:butt;stroke-linejoin:round;stroke-miterlimit:10"
     clip-path="url(#cpNTQuMDA1NHw0OTguNTIxfDQ2Ni4yNXw1LjQ3OTQ1)"
     id="polyline4601"
     transform="translate(531.95337,-5.48)" />
  <polyline
     points="55.08,157.25 55.48,146.32 55.88,140.40 56.28,152.70 56.68,151.60 57.08,145.87 57.48,171.84 57.88,153.25 58.28,136.78 58.69,133.50 59.09,137.66 59.49,142.30 59.89,127.89 60.29,130.15 60.69,135.85 61.09,137.85 61.49,118.45 61.89,119.60 62.29,123.32 62.69,127.76 63.10,132.24 63.50,136.42 63.90,140.17 64.30,143.42 64.70,147.22 65.10,151.39 65.50,143.44 65.90,144.42 66.30,149.95 66.70,155.58 67.10,165.10 67.51,150.82 67.91,154.98 68.31,159.38 68.71,163.94 69.11,168.20 69.51,172.05 69.91,175.95 70.31,175.27 70.71,175.61 71.11,179.45 71.51,177.07 71.92,175.69 72.32,179.16 72.72,167.65 73.12,175.48 73.52,161.63 73.92,163.08 74.32,167.50 74.72,172.26 75.12,174.79 75.52,175.44 75.92,179.03 76.33,180.82 76.73,177.34 77.13,178.63 77.53,173.36 77.93,176.06 78.33,167.47 78.73,161.42 79.13,159.95 79.53,154.66 79.93,156.72 80.33,166.79 80.74,154.51 81.14,157.67 81.54,161.64 81.94,165.93 82.34,170.18 82.74,174.51 83.14,178.50 83.54,178.77 83.94,178.85 84.34,180.43 84.74,179.70 85.15,180.32 85.55,182.84 85.95,169.42 86.35,178.19 86.75,175.39 87.15,168.57 87.55,171.55 87.95,173.52 88.35,176.64 88.75,174.50 89.15,173.13 89.56,162.33 89.96,170.16 90.36,168.66 90.76,165.36 91.16,168.47 91.56,162.01 91.96,157.84 92.36,154.73 92.76,152.54 93.16,157.14 93.56,155.16 93.97,157.72 94.37,156.56 94.77,159.21 95.17,157.25 "
     style="fill:none;stroke:#eb8335;stroke-width:1.07000005;stroke-linecap:butt;stroke-linejoin:round;stroke-miterlimit:10"
     clip-path="url(#cpNTQuMDA1NHw0OTguNTIxfDQ2Ni4yNXw1LjQ3OTQ1)"
     id="polyline4603"
     transform="translate(531.95337,-5.48)" />
  <polyline
     points="55.08,157.25 55.74,142.41 56.41,155.30 57.07,148.32 57.73,177.20 58.40,165.23 59.06,138.81 59.73,146.25 60.39,129.17 61.06,147.62 61.72,144.55 62.38,128.11 63.05,134.12 63.71,141.72 64.38,148.86 65.04,154.99 65.70,161.49 66.37,164.56 67.03,161.15 67.70,169.82 68.36,171.55 69.03,171.64 69.69,179.25 70.35,186.64 71.02,193.37 71.68,195.67 72.35,198.83 73.01,199.11 73.67,200.69 74.34,191.55 75.00,198.47 75.67,188.74 76.33,196.47 77.00,201.76 77.66,205.51 78.32,206.10 78.99,206.34 79.65,204.13 80.32,196.09 80.98,189.09 81.64,186.32 82.31,189.24 82.97,188.32 83.64,193.95 84.30,201.01 84.97,208.40 85.63,215.53 86.29,216.27 86.96,219.66 87.62,220.05 88.29,223.32 88.95,208.36 89.62,220.90 90.28,213.57 90.94,217.61 91.61,222.40 92.27,219.08 92.94,213.62 93.60,214.54 94.26,215.64 94.93,209.53 95.59,202.84 96.26,203.44 96.92,205.68 97.59,210.30 98.25,212.88 98.91,208.45 99.58,207.92 100.24,209.68 100.91,201.72 101.57,197.74 102.23,199.54 102.90,169.99 103.56,199.14 104.23,202.10 104.89,181.98 105.56,187.34 106.22,194.75 106.88,202.93 107.55,211.06 108.21,208.53 108.88,191.66 109.54,160.15 110.20,175.06 110.87,147.02 111.53,151.39 112.20,158.80 112.86,166.82 113.53,174.58 114.19,180.85 114.85,185.56 115.52,185.07 116.18,181.88 116.85,181.59 117.51,179.06 118.17,179.56 118.84,178.14 119.50,169.59 120.17,162.00 120.83,160.21 121.50,157.25 "
     style="fill:none;stroke:#da8f00;stroke-width:1.07000005;stroke-linecap:butt;stroke-linejoin:round;stroke-miterlimit:10"
     clip-path="url(#cpNTQuMDA1NHw0OTguNTIxfDQ2Ni4yNXw1LjQ3OTQ1)"
     id="polyline4605"
     transform="translate(531.95337,-5.48)" />
  <polyline
     points="55.08,157.25 56.02,142.43 56.96,161.54 57.90,181.26 58.84,138.87 59.78,147.59 60.72,132.21 61.65,143.53 62.59,133.24 63.53,141.07 64.47,151.97 65.41,161.43 66.35,170.86 67.29,165.65 68.23,177.42 69.17,177.71 70.11,186.54 71.05,197.49 71.99,207.32 72.93,208.87 73.87,215.09 74.81,216.95 75.75,214.26 76.69,204.20 77.63,215.22 78.57,220.91 79.51,227.72 80.45,227.56 81.39,227.02 82.33,212.83 83.27,209.59 84.21,220.96 85.15,216.40 86.08,226.64 87.02,237.21 87.96,241.68 88.90,245.71 89.84,247.93 90.78,235.36 91.72,237.10 92.66,244.77 93.60,251.80 94.54,241.17 95.48,252.69 96.42,247.28 97.36,241.69 98.30,239.74 99.24,239.55 100.18,244.82 101.12,246.53 102.06,243.95 103.00,248.63 103.94,239.96 104.88,237.94 105.82,218.75 106.76,242.58 107.70,222.64 108.64,231.38 109.58,242.92 110.51,254.55 111.45,240.92 112.39,203.22 113.33,213.05 114.27,194.89 115.21,203.51 116.15,214.96 117.09,225.76 118.03,232.99 118.97,229.80 119.91,233.64 120.85,231.54 121.79,231.26 122.73,224.87 123.67,214.53 124.61,211.11 125.55,212.88 126.49,198.61 127.43,208.82 128.37,202.95 129.31,210.35 130.25,213.44 131.19,214.89 132.13,212.39 133.07,208.42 134.01,209.35 134.94,205.43 135.88,210.77 136.82,201.50 137.76,195.81 138.70,200.76 139.64,201.93 140.58,199.86 141.52,186.47 142.46,188.90 143.40,191.36 144.34,179.24 145.28,179.31 146.22,160.71 147.16,153.71 148.10,164.85 149.04,157.25 "
     style="fill:none;stroke:#c49a00;stroke-width:1.07000005;stroke-linecap:butt;stroke-linejoin:round;stroke-miterlimit:10"
     clip-path="url(#cpNTQuMDA1NHw0OTguNTIxfDQ2Ni4yNXw1LjQ3OTQ1)"
     id="polyline4607"
     transform="translate(531.95337,-5.48)" />
  <polyline
     points="55.08,157.25 56.28,156.62 57.48,152.59 58.68,167.26 59.89,149.15 61.09,140.18 62.29,147.45 63.49,141.15 64.69,155.14 65.90,166.97 67.10,179.53 68.30,179.13 69.50,181.26 70.71,194.43 71.91,207.81 73.11,215.63 74.31,220.10 75.51,202.07 76.72,208.75 77.92,219.85 79.12,228.11 80.32,225.63 81.52,231.71 82.73,225.88 83.93,219.01 85.13,219.78 86.33,231.53 87.53,245.17 88.74,251.39 89.94,255.72 91.14,258.75 92.34,247.83 93.55,256.81 94.75,262.34 95.95,258.26 97.15,258.62 98.35,253.58 99.56,253.32 100.76,257.45 101.96,259.37 103.16,259.51 104.36,252.69 105.57,251.45 106.77,232.06 107.97,256.07 109.17,241.64 110.37,255.35 111.58,270.26 112.78,251.93 113.98,242.90 115.18,210.07 116.39,220.86 117.59,235.52 118.79,247.63 119.99,251.21 121.19,252.54 122.40,247.39 123.60,249.29 124.80,241.49 126.00,231.46 127.20,231.91 128.41,227.74 129.61,222.55 130.81,232.31 132.01,230.95 133.21,225.60 134.42,229.54 135.62,231.23 136.82,234.02 138.02,224.61 139.23,219.89 140.43,224.78 141.63,221.79 142.83,217.15 144.03,226.15 145.24,218.42 146.44,212.59 147.64,205.42 148.84,178.93 150.04,193.25 151.25,193.73 152.45,195.46 153.65,180.78 154.85,175.59 156.05,155.27 157.26,168.74 158.46,181.61 159.66,191.06 160.86,168.22 162.07,137.76 163.27,165.76 164.47,131.70 165.67,145.03 166.87,133.84 168.08,163.79 169.28,132.14 170.48,141.80 171.68,146.67 172.88,156.91 174.09,162.26 175.29,157.25 "
     style="fill:none;stroke:#a9a400;stroke-width:1.07000005;stroke-linecap:butt;stroke-linejoin:round;stroke-miterlimit:10"
     clip-path="url(#cpNTQuMDA1NHw0OTguNTIxfDQ2Ni4yNXw1LjQ3OTQ1)"
     id="polyline4609"
     transform="translate(531.95337,-5.48)" />
  <polyline
     points="55.08,157.25 56.51,156.85 57.95,183.46 59.38,143.26 60.81,133.29 62.25,146.81 63.68,143.09 65.11,159.18 66.55,173.47 67.98,175.18 69.42,179.52 70.85,195.79 72.28,211.24 73.72,217.97 75.15,219.93 76.59,204.96 78.02,220.62 79.45,230.26 80.89,233.94 82.32,224.65 83.75,216.14 85.19,218.57 86.62,233.98 88.06,247.06 89.49,250.87 90.92,247.93 92.36,245.44 93.79,256.81 95.23,246.15 96.66,252.11 98.09,241.72 99.53,246.05 100.96,252.88 102.39,252.80 103.83,252.15 105.26,245.68 106.70,242.59 108.13,230.36 109.56,244.16 111.00,262.04 112.43,244.07 113.87,229.03 115.30,206.91 116.73,223.83 118.17,239.09 119.60,243.91 121.04,241.30 122.47,242.11 123.90,231.38 125.34,222.29 126.77,223.39 128.20,220.97 129.64,218.43 131.07,225.88 132.51,217.22 133.94,221.31 135.37,221.87 136.81,224.19 138.24,221.74 139.68,214.64 141.11,209.32 142.54,201.51 143.98,196.89 145.41,196.05 146.84,193.70 148.28,169.89 149.71,185.52 151.15,192.85 152.58,151.01 154.01,163.23 155.45,145.63 156.88,161.20 158.32,176.33 159.75,160.81 161.18,124.76 162.62,154.94 164.05,123.32 165.48,111.53 166.92,140.81 168.35,118.73 169.79,120.93 171.22,137.90 172.65,142.87 174.09,141.49 175.52,123.94 176.96,127.82 178.39,143.42 179.82,151.24 181.26,132.57 182.69,133.99 184.12,126.95 185.56,135.53 186.99,151.01 188.43,156.20 189.86,157.22 191.29,157.01 192.73,156.20 194.16,148.71 195.60,154.53 197.03,155.13 198.46,157.25 "
     style="fill:none;stroke:#86ac00;stroke-width:1.07000005;stroke-linecap:butt;stroke-linejoin:round;stroke-miterlimit:10"
     clip-path="url(#cpNTQuMDA1NHw0OTguNTIxfDQ2Ni4yNXw1LjQ3OTQ1)"
     id="polyline4611"
     transform="translate(531.95337,-5.48)" />
  <polyline
     points="55.08,157.25 56.73,140.11 58.38,162.67 60.02,150.45 61.67,139.64 63.32,138.55 64.97,156.94 66.62,173.47 68.27,177.86 69.92,184.04 71.57,202.45 73.21,211.63 74.86,213.76 76.51,201.91 78.16,218.42 79.81,221.10 81.46,212.96 83.11,207.30 84.76,211.90 86.40,229.70 88.05,240.00 89.70,245.66 91.35,243.22 93.00,246.14 94.65,238.34 96.30,244.99 97.95,236.44 99.60,240.69 101.24,239.29 102.89,246.33 104.54,233.85 106.19,233.46 107.84,222.13 109.49,241.21 111.14,237.09 112.79,218.25 114.43,193.62 116.08,213.29 117.73,228.43 119.38,227.65 121.03,223.33 122.68,216.39 124.33,206.44 125.98,195.47 127.62,194.14 129.27,201.42 130.92,209.40 132.57,201.77 134.22,199.81 135.87,205.59 137.52,191.46 139.17,195.58 140.82,176.72 142.46,173.71 144.11,178.66 145.76,153.95 147.41,155.35 149.06,162.31 150.71,157.04 152.36,138.50 154.01,123.78 155.65,141.42 157.30,142.32 158.95,144.34 160.60,126.17 162.25,96.98 163.90,89.14 165.55,126.74 167.20,105.81 168.84,104.85 170.49,117.13 172.14,113.21 173.79,101.81 175.44,103.77 177.09,120.25 178.74,124.86 180.39,104.43 182.04,96.06 183.68,107.06 185.33,124.46 186.98,119.39 188.63,126.28 190.28,126.05 191.93,115.78 193.58,122.64 195.23,122.62 196.87,114.49 198.52,116.21 200.17,101.02 201.82,99.91 203.47,96.99 205.12,109.33 206.77,114.11 208.42,115.47 210.06,125.77 211.71,131.68 213.36,140.38 215.01,147.18 216.66,158.41 218.31,159.70 219.96,157.25 "
     style="fill:none;stroke:#53b400;stroke-width:1.07000005;stroke-linecap:butt;stroke-linejoin:round;stroke-miterlimit:10"
     clip-path="url(#cpNTQuMDA1NHw0OTguNTIxfDQ2Ni4yNXw1LjQ3OTQ1)"
     id="polyline4613"
     transform="translate(531.95337,-5.48)" />
  <polyline
     points="55.08,157.25 56.95,161.50 58.83,138.04 60.71,131.62 62.58,132.24 64.46,151.51 66.34,170.17 68.21,177.13 70.09,185.86 71.97,206.24 73.84,209.74 75.72,212.78 77.60,214.25 79.47,213.50 81.35,210.84 83.23,207.90 85.10,214.55 86.98,235.30 88.85,240.29 90.73,245.55 92.61,241.53 94.48,236.19 96.36,243.34 98.24,233.89 100.11,240.45 101.99,241.19 103.87,228.99 105.74,231.25 107.62,218.49 109.50,240.69 111.37,182.91 113.25,182.32 115.13,200.87 117.00,220.29 118.88,221.44 120.76,218.84 122.63,211.27 124.51,200.08 126.39,196.00 128.26,196.88 130.14,201.69 132.01,194.40 133.89,191.10 135.77,180.60 137.64,188.16 139.52,185.94 141.40,187.30 143.27,161.21 145.15,149.91 147.03,149.37 148.90,161.01 150.78,138.86 152.66,108.23 154.53,127.42 156.41,146.88 158.29,134.35 160.16,120.30 162.04,92.47 163.92,94.35 165.79,79.02 167.67,89.11 169.55,104.14 171.42,105.82 173.30,99.62 175.17,98.38 177.05,110.27 178.93,100.96 180.80,91.25 182.68,93.36 184.56,113.38 186.43,110.78 188.31,113.81 190.19,104.04 192.06,111.37 193.94,110.09 195.82,105.70 197.69,104.80 199.57,95.15 201.45,85.14 203.32,91.76 205.20,84.22 207.08,96.85 208.95,112.65 210.83,118.47 212.71,129.81 214.58,133.38 216.46,151.56 218.33,142.74 220.21,144.11 222.09,152.15 223.96,163.42 225.84,160.27 227.72,165.46 229.59,170.11 231.47,162.70 233.35,179.09 235.22,195.03 237.10,189.06 238.98,200.04 240.85,197.40 242.73,157.25 "
     style="fill:none;stroke:#00ba38;stroke-width:1.07000005;stroke-linecap:butt;stroke-linejoin:round;stroke-miterlimit:10"
     clip-path="url(#cpNTQuMDA1NHw0OTguNTIxfDQ2Ni4yNXw1LjQ3OTQ1)"
     id="polyline4615"
     transform="translate(531.95337,-5.48)" />
  <polyline
     points="55.08,157.25 57.23,149.07 59.37,143.06 61.52,149.82 63.67,142.83 65.82,165.52 67.96,174.81 70.11,186.82 72.26,210.55 74.41,213.70 76.55,203.44 78.70,222.88 80.85,231.46 83.00,216.40 85.14,217.23 87.29,240.85 89.44,248.36 91.59,258.40 93.73,255.08 95.88,252.04 98.03,238.85 100.18,248.51 102.33,248.02 104.47,239.60 106.62,243.05 108.77,234.06 110.92,260.20 113.06,221.89 115.21,204.55 117.36,230.11 119.51,233.43 121.65,233.21 123.80,227.79 125.95,218.79 128.10,203.70 130.24,212.77 132.39,215.15 134.54,214.42 136.69,218.78 138.83,208.15 140.98,207.19 143.13,192.84 145.28,194.03 147.43,159.92 149.57,165.12 151.72,174.80 153.87,148.22 156.02,149.78 158.16,171.42 160.31,151.65 162.46,115.64 164.61,100.66 166.75,142.95 168.90,118.54 171.05,133.62 173.20,138.22 175.34,131.38 177.49,131.14 179.64,140.54 181.79,125.02 183.93,126.58 186.08,138.42 188.23,138.44 190.38,146.03 192.53,140.59 194.67,144.06 196.82,144.75 198.97,139.18 201.12,113.65 203.26,121.56 205.41,124.13 207.56,124.25 209.71,135.27 211.85,150.87 214.00,153.77 216.15,172.35 218.30,182.98 220.44,185.07 222.59,180.03 224.74,191.66 226.89,205.62 229.04,213.68 231.18,213.66 233.33,199.63 235.48,215.54 237.63,235.45 239.77,229.66 241.92,243.68 244.07,232.27 246.22,185.32 248.36,208.67 250.51,205.63 252.66,186.69 254.81,174.22 256.95,189.08 259.10,205.66 261.25,231.79 263.40,220.40 265.54,187.24 267.69,181.34 269.84,157.25 "
     style="fill:none;stroke:#00be6d;stroke-width:1.07000005;stroke-linecap:butt;stroke-linejoin:round;stroke-miterlimit:10"
     clip-path="url(#cpNTQuMDA1NHw0OTguNTIxfDQ2Ni4yNXw1LjQ3OTQ1)"
     id="polyline4617"
     transform="translate(531.95337,-5.48)" />
  <polyline
     points="55.08,157.25 57.48,152.61 59.89,149.05 62.29,142.50 64.70,154.95 67.11,178.20 69.51,180.57 71.92,207.42 74.32,216.25 76.73,205.87 79.13,227.54 81.54,231.19 83.94,218.11 86.35,231.04 88.76,249.61 91.16,242.45 93.57,255.22 95.97,260.02 98.38,243.91 100.78,252.96 103.19,258.09 105.60,247.94 108.00,230.61 110.41,254.90 112.81,200.09 115.22,207.36 117.62,234.65 120.03,240.84 122.43,242.82 124.84,229.14 127.25,214.18 129.65,219.54 132.06,229.22 134.46,226.10 136.87,226.34 139.27,216.09 141.68,216.66 144.08,198.01 146.49,197.00 148.90,177.75 151.30,195.14 153.71,160.54 156.11,153.58 158.52,179.32 160.92,170.80 163.33,119.49 165.74,115.44 168.14,110.37 170.55,131.09 172.95,146.89 175.36,128.68 177.76,137.49 180.17,156.77 182.57,137.79 184.98,142.41 187.39,156.16 189.79,159.56 192.20,166.64 194.60,152.93 197.01,160.45 199.41,152.60 201.82,153.00 204.22,136.05 206.63,141.52 209.04,142.42 211.44,159.51 213.85,161.06 216.25,182.98 218.66,192.03 221.06,206.14 223.47,194.20 225.88,208.97 228.28,225.41 230.69,214.11 233.09,220.58 235.50,223.99 237.90,244.64 240.31,252.48 242.71,257.54 245.12,264.91 247.53,205.09 249.93,231.04 252.34,213.48 254.74,194.63 257.15,199.44 259.55,215.49 261.96,244.34 264.36,244.14 266.77,222.77 269.18,200.07 271.58,182.08 273.99,204.31 276.39,207.13 278.80,190.73 281.20,193.12 283.61,190.51 286.02,159.06 288.42,125.84 290.83,146.98 293.23,169.10 295.64,157.25 "
     style="fill:none;stroke:#00c094;stroke-width:1.07000005;stroke-linecap:butt;stroke-linejoin:round;stroke-miterlimit:10"
     clip-path="url(#cpNTQuMDA1NHw0OTguNTIxfDQ2Ni4yNXw1LjQ3OTQ1)"
     id="polyline4619"
     transform="translate(531.95337,-5.48)" />
  <polyline
     points="55.08,157.25 57.78,156.13 60.48,156.55 63.19,138.65 65.89,167.75 68.59,182.98 71.29,202.04 74.00,222.83 76.70,226.22 79.40,232.59 82.10,239.40 84.81,225.88 87.51,246.47 90.21,262.24 92.91,255.05 95.62,268.86 98.32,269.69 101.02,264.14 103.72,268.30 106.43,262.27 109.13,246.82 111.83,275.34 114.54,233.23 117.24,233.43 119.94,262.43 122.64,263.90 125.35,254.71 128.05,246.50 130.75,238.86 133.45,250.90 136.16,250.60 138.86,252.68 141.56,242.89 144.26,225.99 146.97,228.68 149.67,211.83 152.37,206.92 155.07,202.16 157.78,179.71 160.48,208.96 163.18,198.45 165.89,152.97 168.59,159.98 171.29,164.10 173.99,178.17 176.70,181.53 179.40,165.53 182.10,185.46 184.80,189.28 187.51,178.69 190.21,197.34 192.91,201.67 195.61,203.87 198.32,203.10 201.02,205.13 203.72,196.98 206.42,189.54 209.13,180.96 211.83,189.74 214.53,205.40 217.24,210.82 219.94,235.61 222.64,248.08 225.34,252.24 228.05,260.20 230.75,271.04 233.45,272.27 236.15,286.93 238.86,277.35 241.56,299.10 244.26,306.75 246.96,318.90 249.67,310.01 252.37,273.35 255.07,293.03 257.77,266.28 260.48,257.51 263.18,275.90 265.88,302.99 268.58,308.96 271.29,277.98 273.99,244.79 276.69,251.55 279.40,281.02 282.10,256.90 284.80,259.30 287.50,257.28 290.21,241.95 292.91,193.87 295.61,218.02 298.31,243.07 301.02,205.74 303.72,168.48 306.42,134.48 309.12,134.85 311.83,86.06 314.53,79.92 317.23,86.02 319.93,112.39 322.64,143.40 325.34,157.25 "
     style="fill:none;stroke:#00c0b5;stroke-width:1.07000005;stroke-linecap:butt;stroke-linejoin:round;stroke-miterlimit:10"
     clip-path="url(#cpNTQuMDA1NHw0OTguNTIxfDQ2Ni4yNXw1LjQ3OTQ1)"
     id="polyline4621"
     transform="translate(531.95337,-5.48)" />
  <polyline
     points="55.08,157.25 57.99,184.05 60.89,134.44 63.80,144.72 66.71,175.56 69.62,182.12 72.52,214.24 75.43,206.74 78.34,225.03 81.25,233.63 84.16,220.58 87.06,239.81 89.97,255.66 92.88,252.04 95.79,255.63 98.69,248.42 101.60,260.62 104.51,250.34 107.42,251.71 110.33,254.62 113.23,207.23 116.14,217.85 119.05,249.12 121.96,252.91 124.86,237.27 127.77,219.82 130.68,230.95 133.59,234.14 136.50,228.28 139.40,219.87 142.31,221.46 145.22,218.12 148.13,183.57 151.03,189.08 153.94,168.94 156.85,164.00 159.76,180.12 162.66,137.99 165.57,143.70 168.48,114.80 171.39,143.10 174.30,158.80 177.20,164.97 180.11,164.17 183.02,162.55 185.93,152.07 188.83,169.81 191.74,173.93 194.65,168.12 197.56,170.73 200.47,166.41 203.37,148.48 206.28,153.61 209.19,162.47 212.10,169.83 215.00,178.13 217.91,202.50 220.82,218.56 223.73,214.76 226.64,222.27 229.54,243.02 232.45,236.83 235.36,232.77 238.27,254.73 241.17,268.82 244.08,276.97 246.99,266.07 249.90,235.35 252.81,244.73 255.71,217.82 258.62,219.45 261.53,242.32 264.44,277.02 267.34,258.37 270.25,213.23 273.16,203.35 276.07,232.44 278.98,210.47 281.88,213.42 284.79,210.35 287.70,188.27 290.61,152.81 293.51,179.97 296.42,184.17 299.33,128.26 302.24,87.75 305.15,81.46 308.05,31.30 310.96,26.42 313.87,32.83 316.78,63.92 319.68,94.98 322.59,86.04 325.50,84.13 328.41,108.79 331.32,106.37 334.22,116.90 337.13,130.15 340.04,140.53 342.95,130.47 345.85,157.25 "
     style="fill:none;stroke:#00bdd2;stroke-width:1.07000005;stroke-linecap:butt;stroke-linejoin:round;stroke-miterlimit:10"
     clip-path="url(#cpNTQuMDA1NHw0OTguNTIxfDQ2Ni4yNXw1LjQ3OTQ1)"
     id="polyline4623"
     transform="translate(531.95337,-5.48)" />
  <polyline
     points="55.08,157.25 58.37,180.85 61.65,156.71 64.94,159.31 68.23,178.91 71.52,206.10 74.81,233.05 78.10,224.87 81.39,241.06 84.68,238.82 87.96,254.67 91.25,277.21 94.54,276.55 97.83,286.79 101.12,277.94 104.41,286.23 107.70,283.13 110.98,271.57 114.27,309.28 117.56,245.99 120.85,281.88 124.14,295.10 127.43,284.02 130.72,271.01 134.01,279.79 137.29,284.59 140.58,290.22 143.87,279.24 147.16,269.55 150.45,270.64 153.74,248.67 157.03,256.65 160.31,218.25 163.60,254.47 166.89,210.22 170.18,212.14 173.47,186.76 176.76,221.21 180.05,236.95 183.34,221.65 186.62,250.87 189.91,228.61 193.20,245.07 196.49,258.36 199.78,261.70 203.07,263.43 206.36,261.04 209.64,237.55 212.93,252.54 216.22,262.73 219.51,277.77 222.80,292.10 226.09,310.32 229.38,328.11 232.67,327.67 235.95,346.18 239.24,353.77 242.53,360.91 245.82,368.09 249.11,388.70 252.40,399.26 255.69,364.30 258.97,367.14 262.26,357.80 265.55,345.09 268.84,362.65 272.13,394.58 275.42,397.37 278.71,331.15 281.99,337.36 285.28,369.57 288.57,352.33 291.86,355.29 295.15,359.34 298.44,298.46 301.73,312.79 305.02,343.51 308.30,319.58 311.59,268.34 314.88,241.83 318.17,218.68 321.46,185.20 324.75,196.54 328.04,230.25 331.32,265.30 334.61,249.81 337.90,263.81 341.19,288.52 344.48,292.46 347.77,297.13 351.06,319.06 354.35,322.67 357.63,336.65 360.92,317.63 364.21,325.94 367.50,328.38 370.79,233.07 374.08,179.59 377.37,187.84 380.65,194.26 383.94,157.25 "
     style="fill:none;stroke:#00b6eb;stroke-width:1.07000005;stroke-linecap:butt;stroke-linejoin:round;stroke-miterlimit:10"
     clip-path="url(#cpNTQuMDA1NHw0OTguNTIxfDQ2Ni4yNXw1LjQ3OTQ1)"
     id="polyline4625"
     transform="translate(531.95337,-5.48)" />
  <polyline
     points="55.08,157.25 58.67,166.98 62.26,145.83 65.85,169.65 69.44,195.50 73.03,223.71 76.62,221.45 80.21,248.06 83.80,247.93 87.39,249.86 90.98,281.89 94.57,279.10 98.16,290.68 101.75,286.31 105.34,299.79 108.93,296.64 112.52,289.74 116.11,300.62 119.71,270.25 123.30,302.65 126.89,307.42 130.48,292.75 134.07,287.12 137.66,291.08 141.25,298.53 144.84,296.63 148.43,288.45 152.02,285.40 155.61,274.84 159.20,260.99 162.79,251.24 166.38,270.44 169.97,256.98 173.56,236.07 177.15,230.75 180.74,260.77 184.33,268.27 187.92,270.52 191.51,253.65 195.10,272.91 198.69,288.00 202.28,282.44 205.88,292.68 209.47,289.80 213.06,267.91 216.65,287.72 220.24,291.58 223.83,312.97 227.42,341.52 231.01,364.68 234.60,357.00 238.19,380.71 241.78,383.17 245.37,395.02 248.96,411.05 252.55,422.87 256.14,443.14 259.73,385.40 263.32,414.52 266.91,396.17 270.50,393.77 274.09,425.72 277.68,441.87 281.27,408.24 284.86,380.43 288.45,416.00 292.05,402.36 295.64,406.11 299.23,367.13 302.82,341.60 306.41,373.49 310.00,391.12 313.59,323.46 317.18,291.69 320.77,268.08 324.36,253.18 327.95,247.70 331.54,282.33 335.13,319.86 338.72,302.54 342.31,326.01 345.90,343.11 349.49,357.36 353.08,366.59 356.67,384.53 360.26,381.75 363.85,389.51 367.44,383.09 371.03,392.17 374.62,298.27 378.21,243.03 381.81,251.53 385.40,259.37 388.99,220.01 392.58,216.46 396.17,205.36 399.76,204.11 403.35,209.93 406.94,194.05 410.53,171.58 414.12,157.25 "
     style="fill:none;stroke:#00abfd;stroke-width:1.07000005;stroke-linecap:butt;stroke-linejoin:round;stroke-miterlimit:10"
     clip-path="url(#cpNTQuMDA1NHw0OTguNTIxfDQ2Ni4yNXw1LjQ3OTQ1)"
     id="polyline4627"
     transform="translate(531.95337,-5.48)" />
  <polyline
     points="55.08,157.25 58.93,168.85 62.78,147.18 66.63,177.34 70.49,194.84 74.34,229.88 78.19,227.19 82.04,255.64 85.89,245.75 89.75,276.53 93.60,276.86 97.45,294.70 101.30,286.72 105.15,296.69 109.01,297.58 112.86,293.71 116.71,261.05 120.56,280.95 124.42,304.60 128.27,302.60 132.12,281.61 135.97,298.30 139.82,303.13 143.68,304.06 147.53,295.39 151.38,282.43 155.23,270.51 159.08,245.40 162.94,253.32 166.79,262.67 170.64,223.26 174.49,256.11 178.34,245.24 182.20,259.52 186.05,258.57 189.90,260.75 193.75,258.65 197.60,286.76 201.46,296.86 205.31,294.41 209.16,293.42 213.01,282.76 216.87,290.74 220.72,298.07 224.57,319.53 228.42,345.31 232.27,360.79 236.13,365.26 239.98,395.67 243.83,401.00 247.68,399.52 251.53,434.87 255.39,442.73 259.24,417.66 263.09,422.69 266.94,398.09 270.79,397.73 274.65,433.08 278.50,443.41 282.35,401.01 286.20,392.95 290.06,429.94 293.91,404.16 297.76,406.81 301.61,388.34 305.46,366.96 309.32,399.53 313.17,339.52 317.02,294.80 320.87,271.35 324.72,257.06 328.58,253.47 332.43,293.65 336.28,325.62 340.13,310.63 343.98,342.46 347.84,347.40 351.69,357.76 355.54,382.66 359.39,375.41 363.24,408.94 367.10,385.73 370.95,397.78 374.80,304.48 378.65,247.51 382.51,256.56 386.36,263.19 390.21,220.90 394.06,218.53 397.91,211.36 401.77,211.80 405.62,205.95 409.47,190.17 413.32,162.58 417.17,161.93 421.03,141.31 424.88,147.82 428.73,152.07 432.58,150.57 436.43,166.72 440.29,157.25 "
     style="fill:none;stroke:#619cff;stroke-width:1.07000005;stroke-linecap:butt;stroke-linejoin:round;stroke-miterlimit:10"
     clip-path="url(#cpNTQuMDA1NHw0OTguNTIxfDQ2Ni4yNXw1LjQ3OTQ1)"
     id="polyline4629"
     transform="translate(531.95337,-5.48)" />
  <polyline
     points="55.08,157.25 59.15,142.76 63.22,141.18 67.30,184.14 71.37,204.52 75.44,232.05 79.52,242.24 83.59,245.23 87.66,251.83 91.74,280.93 95.81,287.69 99.88,288.90 103.96,293.87 108.03,287.47 112.10,283.40 116.17,253.14 120.25,275.63 124.32,299.25 128.39,284.78 132.47,280.72 136.54,292.52 140.61,289.35 144.69,285.65 148.76,270.37 152.83,256.70 156.91,262.63 160.98,227.73 165.05,257.56 169.13,236.99 173.20,224.92 177.27,229.24 181.35,244.50 185.42,247.24 189.49,247.84 193.56,251.72 197.64,270.90 201.71,263.64 205.78,276.59 209.86,272.55 213.93,266.57 218.00,279.30 222.08,298.01 226.15,321.72 230.22,342.20 234.30,339.62 238.37,371.68 242.44,378.89 246.52,379.72 250.59,402.94 254.66,420.46 258.73,368.22 262.81,386.98 266.88,356.49 270.95,383.34 275.03,426.82 279.10,384.93 283.17,354.85 287.25,395.54 291.32,373.19 295.39,373.82 299.47,352.43 303.54,336.53 307.61,363.40 311.69,294.34 315.76,261.59 319.83,221.04 323.90,214.97 327.98,233.99 332.05,280.85 336.12,271.22 340.20,294.04 344.27,306.46 348.34,316.66 352.42,338.54 356.49,333.87 360.56,367.79 364.64,345.21 368.71,354.65 372.78,254.81 376.86,205.07 380.93,215.38 385.00,190.09 389.08,176.66 393.15,165.76 397.22,163.70 401.29,167.50 405.37,148.34 409.44,116.73 413.51,114.13 417.59,93.20 421.66,98.99 425.73,100.37 429.81,103.40 433.88,116.48 437.95,106.22 442.03,111.07 446.10,121.03 450.17,136.90 454.25,156.29 458.32,164.65 462.39,157.25 "
     style="fill:none;stroke:#a58aff;stroke-width:1.07000005;stroke-linecap:butt;stroke-linejoin:round;stroke-miterlimit:10"
     clip-path="url(#cpNTQuMDA1NHw0OTguNTIxfDQ2Ni4yNXw1LjQ3OTQ1)"
     id="polyline4631"
     transform="translate(531.95337,-5.48)" />
  <polyline
     points="55.08,157.25 59.41,144.99 63.74,145.30 68.07,177.18 72.40,216.54 76.74,221.78 81.07,252.58 85.40,240.48 89.73,275.06 94.06,283.16 98.39,294.26 102.72,288.56 107.06,287.87 111.39,276.84 115.72,294.30 120.05,273.34 124.38,299.95 128.71,286.27 133.05,274.28 137.38,289.75 141.71,295.28 146.04,282.61 150.37,266.24 154.70,261.91 159.03,238.43 163.37,254.61 167.70,222.65 172.03,208.59 176.36,217.96 180.69,250.01 185.02,243.19 189.36,256.20 193.69,253.44 198.02,274.10 202.35,268.01 206.68,277.85 211.01,259.65 215.34,268.95 219.68,282.01 224.01,301.87 228.34,332.51 232.67,338.23 237.00,361.83 241.33,367.57 245.67,373.04 250.00,410.73 254.33,421.07 258.66,367.75 262.99,389.48 267.32,359.97 271.65,391.91 275.99,418.04 280.32,369.28 284.65,366.95 288.98,389.86 293.31,373.06 297.64,326.61 301.98,322.71 306.31,363.95 310.64,308.63 314.97,262.86 319.30,229.29 323.63,213.50 327.96,234.43 332.30,284.09 336.63,271.70 340.96,302.24 345.29,310.59 349.62,323.39 353.95,346.65 358.29,351.44 362.62,343.88 366.95,356.69 371.28,294.47 375.61,209.62 379.94,216.33 384.27,213.74 388.61,178.91 392.94,169.61 397.27,166.67 401.60,170.54 405.93,150.72 410.26,118.28 414.60,116.21 418.93,96.06 423.26,104.54 427.59,96.43 431.92,116.25 436.25,114.01 440.58,116.16 444.92,119.71 449.25,134.31 453.58,154.36 457.91,170.33 462.24,163.30 466.57,149.11 470.91,165.57 475.24,150.00 479.57,162.65 483.90,159.39 488.23,157.25 "
     style="fill:none;stroke:#d078ff;stroke-width:1.07000005;stroke-linecap:butt;stroke-linejoin:round;stroke-miterlimit:10"
     clip-path="url(#cpNTQuMDA1NHw0OTguNTIxfDQ2Ni4yNXw1LjQ3OTQ1)"
     id="polyline4633"
     transform="translate(531.95337,-5.48)" />
  <polyline
     points="55.08,157.25 59.69,147.70 64.30,151.95 68.91,188.55 73.52,228.72 78.13,226.23 82.73,252.72 87.34,249.05 91.95,284.14 96.56,293.03 101.17,284.67 105.78,298.13 110.39,296.61 115.00,319.44 119.61,268.66 124.22,301.40 128.83,290.10 133.44,279.97 138.05,296.87 142.66,282.29 147.27,290.82 151.88,277.91 156.49,271.03 161.10,231.57 165.71,268.76 170.32,218.17 174.93,209.33 179.53,251.93 184.14,250.33 188.75,272.30 193.36,251.83 197.97,280.28 202.58,276.05 207.19,285.79 211.80,271.52 216.41,283.55 221.02,300.69 225.63,322.97 230.24,355.67 234.85,360.62 239.46,387.19 244.07,381.74 248.68,405.62 253.29,420.98 257.90,392.43 262.51,411.59 267.12,380.27 271.73,398.63 276.33,445.31 280.94,365.12 285.55,381.37 290.16,406.77 294.77,391.83 299.38,365.13 303.99,347.67 308.60,385.48 313.21,314.47 317.82,282.86 322.43,233.82 327.04,236.24 331.65,281.55 336.26,315.96 340.87,307.88 345.48,331.83 350.09,340.15 354.70,361.68 359.31,368.48 363.92,365.64 368.52,379.07 373.13,302.30 377.74,229.64 382.35,240.60 386.96,213.23 391.57,203.68 396.18,192.94 400.79,194.06 405.40,182.23 410.01,155.25 414.62,142.91 419.23,123.31 423.84,128.67 428.45,124.72 433.06,139.73 437.67,143.89 442.28,143.79 446.89,147.70 451.50,164.00 456.11,186.38 460.72,195.35 465.32,182.60 469.93,185.25 474.54,188.87 479.15,183.50 483.76,194.31 488.37,183.80 492.98,195.05 497.59,191.86 "
     style="fill:none;stroke:#ec69ef;stroke-width:1.07000005;stroke-linecap:butt;stroke-linejoin:round;stroke-miterlimit:10"
     clip-path="url(#cpNTQuMDA1NHw0OTguNTIxfDQ2Ni4yNXw1LjQ3OTQ1)"
     id="polyline4635"
     transform="translate(531.95337,-5.48)" />
  <polyline
     points="55.08,157.25 59.91,150.13 64.75,157.14 69.58,198.99 74.42,229.79 79.25,238.98 84.09,243.32 88.92,266.15 93.76,292.16 98.59,282.96 103.43,289.36 108.26,287.85 113.10,295.28 117.93,251.04 122.77,291.52 127.60,291.11 132.44,276.73 137.27,288.42 142.11,274.19 146.94,280.38 151.78,267.24 156.61,269.40 161.45,232.79 166.28,249.20 171.12,224.60 175.95,222.49 180.79,239.95 185.62,248.55 190.46,236.94 195.29,260.69 200.13,273.93 204.96,272.35 209.80,270.62 214.63,260.42 219.47,278.81 224.30,304.21 229.14,339.32 233.97,340.65 238.81,373.60 243.64,369.59 248.48,397.70 253.32,412.41 258.15,360.89 262.99,374.51 267.82,360.03 272.66,403.24 277.49,408.22 282.33,345.55 287.16,393.15 292.00,367.51 296.83,373.01 301.67,317.36 306.50,362.69 311.34,289.65 316.17,257.81 321.01,195.84 325.84,213.15 330.68,264.60 335.51,271.84 340.35,293.92 345.18,306.38 350.02,323.33 354.85,352.30 359.69,362.08 364.52,340.88 369.36,343.48 374.19,213.37 379.03,208.12 383.86,202.41 388.70,171.43 393.53,159.97 398.37,160.47 403.20,148.48 408.04,118.43 412.87,108.93 417.71,86.66 422.54,95.26 427.38,88.48 432.21,109.54 437.05,99.41 441.88,105.10 446.72,117.11 451.55,138.88 456.39,159.55 461.22,153.58 466.06,139.69 470.89,153.45 475.73,141.05 480.56,153.53 485.40,142.34 490.23,153.51 495.07,149.79 "
     style="fill:none;stroke:#fb61d7;stroke-width:1.07000005;stroke-linecap:butt;stroke-linejoin:round;stroke-miterlimit:10"
     clip-path="url(#cpNTQuMDA1NHw0OTguNTIxfDQ2Ni4yNXw1LjQ3OTQ1)"
     id="polyline4637"
     transform="translate(531.95337,-5.48)" />
  <polyline
     points="55.08,157.25 60.16,153.02 65.24,162.71 70.32,192.30 75.40,231.16 80.48,247.10 85.56,239.69 90.64,276.57 95.72,286.30 100.81,279.18 105.89,292.02 110.97,272.59 116.05,253.49 121.13,285.47 126.21,296.40 131.29,268.22 136.37,289.11 141.45,290.91 146.53,279.85 151.61,264.70 156.70,258.83 161.78,235.79 166.86,216.96 171.94,208.48 177.02,225.14 182.10,219.99 187.18,250.54 192.26,235.43 197.34,265.53 202.42,265.18 207.50,266.69 212.58,257.28 217.67,274.10 222.75,293.76 227.83,324.54 232.91,331.33 237.99,365.24 243.07,368.74 248.15,392.73 253.23,409.87 258.31,361.49 263.39,374.47 268.47,362.26 273.56,413.40 278.64,377.02 283.72,353.69 288.80,361.69 293.88,358.72 298.96,308.04 304.04,336.80 309.12,330.68 314.20,249.17 319.28,199.46 324.36,201.80 329.44,248.68 334.53,277.24 339.61,284.09 344.69,298.60 349.77,318.01 354.85,331.09 359.93,353.75 365.01,336.69 370.09,280.70 375.17,189.73 380.25,201.63 385.33,166.18 390.42,157.31 395.50,149.08 400.58,150.82 405.66,123.46 410.74,99.41 415.82,80.08 420.90,83.28 425.98,76.54 431.06,98.21 436.14,88.66 441.22,94.22 446.30,106.90 451.39,129.61 456.47,149.05 461.55,136.13 466.63,135.01 471.71,132.52 476.79,135.81 481.87,138.24 486.95,134.97 492.03,141.47 497.11,138.38 "
     style="fill:none;stroke:#ff63b9;stroke-width:1.07000005;stroke-linecap:butt;stroke-linejoin:round;stroke-miterlimit:10"
     clip-path="url(#cpNTQuMDA1NHw0OTguNTIxfDQ2Ni4yNXw1LjQ3OTQ1)"
     id="polyline4639"
     transform="translate(531.95337,-5.48)" />
  <polyline
     points="55.08,157.25 60.43,156.38 65.78,168.56 71.14,201.70 76.49,217.62 81.84,252.32 87.19,246.69 92.55,286.09 97.90,286.85 103.25,291.42 108.60,290.40 113.96,306.23 119.31,264.13 124.66,299.62 130.01,282.25 135.37,289.49 140.72,291.27 146.07,282.27 151.42,270.53 156.78,267.29 162.13,240.89 167.48,218.09 172.83,227.21 178.19,239.57 183.54,230.50 188.89,247.60 194.24,259.22 199.60,276.78 204.95,276.43 210.30,256.09 215.65,272.00 221.01,294.97 226.36,322.82 231.71,339.23 237.06,360.78 242.42,378.79 247.77,391.49 253.12,410.99 258.47,365.35 263.83,381.70 269.18,372.36 274.53,426.75 279.88,348.15 285.24,373.26 290.59,375.65 295.94,376.40 301.29,316.08 306.65,365.74 312.00,292.40 317.35,262.86 322.70,205.12 328.06,234.95 333.41,287.56 338.76,279.86 344.11,308.52 349.47,321.29 354.82,354.61 360.17,368.01 365.52,349.00 370.88,307.11 376.23,204.53 381.58,217.54 386.93,178.43 392.29,169.28 397.64,164.24 402.99,156.99 408.34,125.87 413.70,115.19 419.05,93.80 424.40,104.03 429.75,103.86 435.11,115.96 440.46,113.51 445.81,121.16 451.16,143.05 456.52,166.20 461.87,160.76 467.22,150.49 472.57,154.39 477.93,154.51 483.28,157.65 488.63,156.05 493.98,159.30 "
     style="fill:none;stroke:#ff6b96;stroke-width:1.07000005;stroke-linecap:butt;stroke-linejoin:round;stroke-miterlimit:10"
     clip-path="url(#cpNTQuMDA1NHw0OTguNTIxfDQ2Ni4yNXw1LjQ3OTQ1)"
     id="polyline4641"
     transform="translate(531.95337,-5.48)" />
  <line
     x1="54.009998"
     y1="157.25"
     x2="498.51999"
     y2="157.25"
     style="fill:none;stroke:#000000;stroke-width:1.07000005;stroke-linecap:butt;stroke-linejoin:round;stroke-miterlimit:10"
     clip-path="url(#cpNTQuMDA1NHw0OTguNTIxfDQ2Ni4yNXw1LjQ3OTQ1)"
     id="line4643"
     transform="translate(531.95337,-5.48)" />
  <path
     transform="translate(531.95337,-5.48)"
     style="fill:none;stroke:#333333;stroke-width:1.07;stroke-linecap:round;stroke-linejoin:round;stroke-miterlimit:10;stroke-dasharray:none"
     clip-path="url(#cpNTQuMDA1NHw0OTguNTIxfDQ2Ni4yNXw1LjQ3OTQ1)"
     d="m 498.52999,466.24999 -444.519992,0 0,-444.016577"
     id="rect4645"
     inkscape:connector-curvature="0"
     sodipodi:nodetypes="ccc" />
  <g
     clip-path="url(#cpMHw1MDR8NTA0fDA=)"
     id="g4652"
     transform="translate(531.95337,-5.48)">
    <text
       x="23.41"
       y="317.95999"
       style="font-style:italic;font-size:14px;font-family:'TeX Gyre Termes';fill:#4d4d4d"
       textLength="25.66px"
       lengthAdjust="spacingAndGlyphs"
       id="text4654">-500</text>
  </g>
  <g
     clip-path="url(#cpMHw1MDR8NTA0fDA=)"
     id="g4656"
     transform="translate(531.95337,-5.48)">
    <text
       x="42.07"
       y="161.96001"
       style="font-style:italic;font-size:14px;font-family:'TeX Gyre Termes';fill:#4d4d4d"
       textLength="7.00px"
       lengthAdjust="spacingAndGlyphs"
       id="text4658">0</text>
  </g>
  <g
     clip-path="url(#cpMHw1MDR8NTA0fDA=)"
     id="g4660"
     transform="translate(531.95337,-5.54906)">
    <text
       x="50.509998"
       y="480.59"
       style="font-style:italic;font-size:14px;font-family:'TeX Gyre Termes';fill:#4d4d4d"
       textLength="7.00px"
       lengthAdjust="spacingAndGlyphs"
       id="text4662">0</text>
  </g>
  <g
     clip-path="url(#cpMHw1MDR8NTA0fDA=)"
     id="g4664"
     transform="translate(531.95337,-5.54906)">
    <text
       x="145.84"
       y="480.59"
       style="font-style:italic;font-size:14px;font-family:'TeX Gyre Termes';fill:#4d4d4d"
       textLength="28.00px"
       lengthAdjust="spacingAndGlyphs"
       id="text4666">5000</text>
  </g>
  <g
     clip-path="url(#cpMHw1MDR8NTA0fDA=)"
     id="g4668"
     transform="translate(531.95337,-5.54906)">
    <text
       x="248.17999"
       y="480.59"
       style="font-style:italic;font-size:14px;font-family:'TeX Gyre Termes';fill:#4d4d4d"
       textLength="35.00px"
       lengthAdjust="spacingAndGlyphs"
       id="text4670">10000</text>
  </g>
  <g
     clip-path="url(#cpMHw1MDR8NTA0fDA=)"
     id="g4672"
     transform="translate(531.95337,-5.54906)">
    <text
       x="354.01999"
       y="480.59"
       style="font-style:italic;font-size:14px;font-family:'TeX Gyre Termes';fill:#4d4d4d"
       textLength="35.00px"
       lengthAdjust="spacingAndGlyphs"
       id="text4674">15000</text>
  </g>
  <g
     clip-path="url(#cpMHw1MDR8NTA0fDA=)"
     id="g4676"
     transform="translate(531.95337,-5.54906)">
    <text
       x="459.85001"
       y="480.59"
       style="font-style:italic;font-size:14px;font-family:'TeX Gyre Termes';fill:#4d4d4d"
       textLength="35.00px"
       lengthAdjust="spacingAndGlyphs"
       id="text4678">20000</text>
  </g>
  <path
     style="opacity:1;fill:none;fill-opacity:0.77011497;stroke:#333333;stroke-width:0.8;stroke-linecap:round;stroke-linejoin:round;stroke-miterlimit:4;stroke-dasharray:none;stroke-opacity:1"
     d="m 506.85019,459.27387 -473.71173,0 0,-442.90707"
     id="rect5256"
     inkscape:connector-curvature="0"
     sodipodi:nodetypes="ccc" />
  <path
     style="fill:#000f00;fill-opacity:0.19881305;fill-rule:evenodd;stroke:#000000;stroke-width:1px;stroke-linecap:butt;stroke-linejoin:miter;stroke-miterlimit:10;stroke-opacity:1"
     d="m 329.40493,145.40639 c 0,0 7.54217,-8.61739 10.88786,-13.25378 16.41557,-22.74844 16.82638,-71.1935 44.87922,-71.1935 28.05284,0 28.46365,48.44506 44.87922,71.1935 3.34569,4.63639 10.88786,13.25378 10.88786,13.25378 z"
     id="path5258"
     inkscape:connector-curvature="0"
     sodipodi:nodetypes="caaacc" />
  <path
     style="fill:none;fill-rule:evenodd;stroke:#000000;stroke-width:1px;stroke-linecap:butt;stroke-linejoin:miter;stroke-miterlimit:10;stroke-opacity:1"
     d="M 33.167211,458.23314 386.88982,144.87528"
     id="path5260"
     inkscape:connector-curvature="0" />
  <circle
     style="opacity:0.8;fill:#000f00;fill-opacity:0.19881305;stroke:#000000;stroke-width:3;stroke-linecap:round;stroke-linejoin:round;stroke-miterlimit:4;stroke-dasharray:none;stroke-opacity:1"
     id="path5262"
     cx="385.82758"
     cy="144.87531"
     r="7.4356103" />
  <circle
     style="opacity:0.8;fill:#000f00;fill-opacity:0.19881305;stroke:#000000;stroke-width:3;stroke-linecap:round;stroke-linejoin:round;stroke-miterlimit:4;stroke-dasharray:none;stroke-opacity:1"
     id="path5262-8"
     cx="292.50781"
     cy="228.79144"
     r="7.4356103" />
  <circle
     style="opacity:0.8;fill:#000f00;fill-opacity:0.19881305;stroke:#000000;stroke-width:3;stroke-linecap:round;stroke-linejoin:round;stroke-miterlimit:4;stroke-dasharray:none;stroke-opacity:1"
     id="path5262-9"
     cx="223.22255"
     cy="289.33856"
     r="7.4356103" />
  <circle
     style="opacity:0.8;fill:#000f00;fill-opacity:0.19881305;stroke:#000000;stroke-width:3;stroke-linecap:round;stroke-linejoin:round;stroke-miterlimit:4;stroke-dasharray:none;stroke-opacity:1"
     id="path5262-6"
     cx="325.28049"
     cy="199.04901"
     r="7.4356103" />
  <circle
     style="opacity:0.8;fill:#000f00;fill-opacity:0.19881305;stroke:#000000;stroke-width:3;stroke-linecap:round;stroke-linejoin:round;stroke-miterlimit:4;stroke-dasharray:none;stroke-opacity:1"
     id="path5262-7"
     cx="147.33835"
     cy="357.43713"
     r="7.4356103" />
  <circle
     style="opacity:0.8;fill:#000f00;fill-opacity:0.19881305;stroke:#000000;stroke-width:3;stroke-linecap:round;stroke-linejoin:round;stroke-miterlimit:4;stroke-dasharray:none;stroke-opacity:1"
     id="path5262-73"
     cx="114.20352"
     cy="387.06372"
     r="7.4356103" />
  <circle
     style="opacity:0.8;fill:#000f00;fill-opacity:0.19881305;stroke:#000000;stroke-width:3;stroke-linecap:round;stroke-linejoin:round;stroke-miterlimit:4;stroke-dasharray:none;stroke-opacity:1"
     id="path5262-71"
     cx="177.79558"
     cy="329.70331"
     r="7.4356103" />
  <path
     style="fill:none;fill-rule:evenodd;stroke:#000000;stroke-width:2.4000001;stroke-linecap:butt;stroke-linejoin:miter;stroke-miterlimit:4;stroke-dasharray:9.6, 2.4;stroke-dashoffset:2.64000034;stroke-opacity:1"
     d="M 57.067385,406.71498 327.93606,164.52654"
     id="path5260-2"
     inkscape:connector-curvature="0"
     sodipodi:nodetypes="cc" />
  <path
     style="fill:#ff0000;fill-opacity:1;fill-rule:evenodd;stroke:#ff0000;stroke-width:2.29999995;stroke-linecap:butt;stroke-linejoin:miter;stroke-miterlimit:4;stroke-dasharray:none;stroke-opacity:1;marker-end:url(#marker6859)"
     d="m 129.73189,387.06373 36.11582,0"
     id="path5864"
     inkscape:connector-curvature="0" />
  <path
     style="fill:#ff0000;fill-opacity:1;fill-rule:evenodd;stroke:#ff0000;stroke-width:2.29999995;stroke-linecap:butt;stroke-linejoin:miter;stroke-miterlimit:4;stroke-dasharray:none;stroke-opacity:1;marker-end:url(#marker6741)"
     d="m 170.86673,357.43711 36.11582,0"
     id="path5864-5"
     inkscape:connector-curvature="0" />
  <path
     style="fill:#ff0000;fill-opacity:1;fill-rule:evenodd;stroke:#ff0000;stroke-width:2.29999995;stroke-linecap:butt;stroke-linejoin:miter;stroke-miterlimit:4;stroke-dasharray:none;stroke-opacity:1;marker-end:url(#marker6629)"
     d="m 205.31962,329.70332 36.11582,0"
     id="path5864-0"
     inkscape:connector-curvature="0" />
  <path
     style="fill:#ff0000;fill-opacity:1;fill-rule:evenodd;stroke:#ff0000;stroke-width:2.29999995;stroke-linecap:butt;stroke-linejoin:miter;stroke-miterlimit:4;stroke-dasharray:none;stroke-opacity:1;marker-end:url(#marker6523)"
     d="m 253.99554,289.33857 36.11582,0"
     id="path5864-1"
     inkscape:connector-curvature="0" />
  <path
     style="fill:#ff0000;fill-opacity:1;fill-rule:evenodd;stroke:#ff0000;stroke-width:2.29999995;stroke-linecap:butt;stroke-linejoin:miter;stroke-miterlimit:4;stroke-dasharray:none;stroke-opacity:1;marker-end:url(#marker6423)"
     d="m 325.21854,228.79145 36.11582,0"
     id="path5864-4"
     inkscape:connector-curvature="0" />
  <path
     style="fill:#ff0000;fill-opacity:1;fill-rule:evenodd;stroke:#ff0000;stroke-width:2.29999995;stroke-linecap:butt;stroke-linejoin:miter;stroke-miterlimit:4;stroke-dasharray:none;stroke-opacity:1;marker-end:url(#marker9269)"
     d="m 358.89568,199.04902 36.11582,0"
     id="path5864-03"
     inkscape:connector-curvature="0" />
  <path
     style="fill:#ff0000;fill-opacity:1;fill-rule:evenodd;stroke:#ff0000;stroke-width:2.29999995;stroke-linecap:butt;stroke-linejoin:miter;stroke-miterlimit:4;stroke-dasharray:none;stroke-opacity:1;marker-end:url(#marker6983)"
     d="m 418.66275,144.87529 36.11582,0"
     id="path5864-6"
     inkscape:connector-curvature="0" />
  <path
     style="fill:none;fill-rule:evenodd;stroke:#000000;stroke-width:1px;stroke-linecap:butt;stroke-linejoin:miter;stroke-miterlimit:10;stroke-opacity:1"
     d="m 35.291671,458.23314 c 0,0 121.466229,-51.74862 176.861309,-87.10286 C 312.02231,307.3917 488.8639,148.06197 488.8639,148.06197"
     id="path6475"
     inkscape:connector-curvature="0"
     sodipodi:nodetypes="cac" />
  <circle
     style="opacity:0.8;fill:#000f00;fill-opacity:0.19881305;stroke:#000000;stroke-width:3;stroke-linecap:round;stroke-linejoin:round;stroke-miterlimit:4;stroke-dasharray:none;stroke-opacity:1"
     id="path5262-5"
     cx="430.53674"
     cy="199.04901"
     r="7.4356103" />
  <circle
     style="opacity:0.8;fill:#000f00;fill-opacity:0.19881305;stroke:#000000;stroke-width:3;stroke-linecap:round;stroke-linejoin:round;stroke-miterlimit:4;stroke-dasharray:none;stroke-opacity:1"
     id="path5262-8-4"
     cx="395.95511"
     cy="228.79144"
     r="7.4356103" />
  <circle
     style="opacity:0.8;fill:#000f00;fill-opacity:0.19881305;stroke:#000000;stroke-width:3;stroke-linecap:round;stroke-linejoin:round;stroke-miterlimit:4;stroke-dasharray:none;stroke-opacity:1"
     id="path5262-9-2"
     cx="322.79431"
     cy="289.33856"
     r="7.4356103" />
  <circle
     style="opacity:0.8;fill:#000f00;fill-opacity:0.19881305;stroke:#000000;stroke-width:3;stroke-linecap:round;stroke-linejoin:round;stroke-miterlimit:4;stroke-dasharray:none;stroke-opacity:1"
     id="path5262-6-2"
     cx="489.5238"
     cy="144.87531"
     r="7.4356103" />
  <circle
     style="opacity:0.8;fill:#000f00;fill-opacity:0.19881305;stroke:#000000;stroke-width:3;stroke-linecap:round;stroke-linejoin:round;stroke-miterlimit:4;stroke-dasharray:none;stroke-opacity:1"
     id="path5262-7-1"
     cx="232.42091"
     cy="357.43713"
     r="7.4356103" />
  <circle
     style="opacity:0.8;fill:#000f00;fill-opacity:0.19881305;stroke:#000000;stroke-width:3;stroke-linecap:round;stroke-linejoin:round;stroke-miterlimit:4;stroke-dasharray:none;stroke-opacity:1"
     id="path5262-73-7"
     cx="183.28607"
     cy="387.06372"
     r="7.4356103" />
  <circle
     style="opacity:0.8;fill:#000f00;fill-opacity:0.19881305;stroke:#000000;stroke-width:3;stroke-linecap:round;stroke-linejoin:round;stroke-miterlimit:4;stroke-dasharray:none;stroke-opacity:1"
     id="path5262-71-2"
     cx="270.86951"
     cy="329.70331"
     r="7.4356103" />
  <text
     xml:space="preserve"
     style="font-style:italic;font-variant:normal;font-weight:bold;font-stretch:normal;font-size:30px;line-height:125%;font-family:'TeX Gyre Termes';-inkscape-font-specification:'TeX Gyre Termes, Bold Italic';text-align:start;letter-spacing:0px;word-spacing:0px;writing-mode:lr-tb;text-anchor:start;fill:#000000;fill-opacity:1;stroke:none;stroke-width:1px;stroke-linecap:butt;stroke-linejoin:miter;stroke-opacity:1"
     x="140.30037"
     y="499.0957"
     id="text6747"
     sodipodi:linespacing="125%"><tspan
       sodipodi:role="line"
       id="tspan6749"
       x="140.30037"
       y="499.0957">Years Before Present</tspan></text>
  <text
     xml:space="preserve"
     style="font-style:italic;font-variant:normal;font-weight:bold;font-stretch:normal;font-size:30px;line-height:125%;font-family:'TeX Gyre Termes';-inkscape-font-specification:'TeX Gyre Termes, Bold Italic';text-align:start;letter-spacing:0px;word-spacing:0px;writing-mode:lr-tb;text-anchor:start;fill:#000000;fill-opacity:1;stroke:none;stroke-width:1px;stroke-linecap:butt;stroke-linejoin:miter;stroke-opacity:1"
     x="-273.74017"
     y="20.969999"
     id="text6751"
     sodipodi:linespacing="125%"
     transform="matrix(0,-1,1,0,0,0)"><tspan
       sodipodi:role="line"
       id="tspan6753"
       x="-273.74017"
       y="20.969999">Depth</tspan></text>
  <text
     xml:space="preserve"
     style="font-style:normal;font-variant:normal;font-weight:normal;font-stretch:normal;font-size:20px;line-height:125%;font-family:Sawasdee;-inkscape-font-specification:'Sawasdee, Normal';text-align:start;letter-spacing:0px;word-spacing:0px;writing-mode:lr-tb;text-anchor:start;fill:#000000;fill-opacity:1;stroke:none;stroke-width:1px;stroke-linecap:butt;stroke-linejoin:miter;stroke-opacity:1"
     x="-126.87848"
     y="330.3045"
     id="text6821"
     sodipodi:linespacing="125%"
     transform="matrix(0.75325589,-0.65772758,0.65772758,0.75325589,0,0)"><tspan
       sodipodi:role="line"
       id="tspan6823"
       x="-126.87848"
       y="330.3045">Radiocarbon Years</tspan></text>
  <text
     xml:space="preserve"
     style="font-style:normal;font-variant:normal;font-weight:normal;font-stretch:normal;font-size:20px;line-height:125%;font-family:Sawasdee;-inkscape-font-specification:'Sawasdee, Normal';text-align:start;letter-spacing:0px;word-spacing:0px;writing-mode:lr-tb;text-anchor:start;fill:#000000;fill-opacity:1;stroke:none;stroke-width:1px;stroke-linecap:butt;stroke-linejoin:miter;stroke-opacity:1"
     x="-89.25531"
     y="457.70856"
     id="text6821-5"
     sodipodi:linespacing="125%"
     transform="matrix(0.75325589,-0.65772758,0.65772758,0.75325589,0,0)"><tspan
       sodipodi:role="line"
       id="tspan6823-2"
       x="-89.25531"
       y="457.70856">Calibrated Radiocarbon Years</tspan></text>
  <text
     xml:space="preserve"
     style="font-style:normal;font-weight:normal;font-size:40px;line-height:125%;font-family:sans-serif;letter-spacing:0px;word-spacing:0px;fill:#000000;fill-opacity:1;stroke:none;stroke-width:1px;stroke-linecap:butt;stroke-linejoin:miter;stroke-opacity:1"
     x="-344.94263"
     y="546.9447"
     id="text7139"
     sodipodi:linespacing="125%"
     transform="matrix(0,-1,1,0,0,0)"><tspan
       sodipodi:role="line"
       id="tspan7141"
       x="-344.94263"
       y="546.9447"
       style="font-style:italic;font-variant:normal;font-weight:bold;font-stretch:normal;font-size:30px;line-height:125%;font-family:'TeX Gyre Termes';-inkscape-font-specification:'TeX Gyre Termes, Bold Italic';text-align:start;writing-mode:lr-tb;text-anchor:start">Model Difference</tspan></text>
  <text
     xml:space="preserve"
     style="font-style:italic;font-variant:normal;font-weight:bold;font-stretch:normal;font-size:30px;line-height:125%;font-family:'TeX Gyre Termes';-inkscape-font-specification:'TeX Gyre Termes, Bold Italic';text-align:start;letter-spacing:0px;word-spacing:0px;writing-mode:lr-tb;text-anchor:start;fill:#000000;fill-opacity:1;stroke:none;stroke-width:1px;stroke-linecap:butt;stroke-linejoin:miter;stroke-opacity:1"
     x="596.28906"
     y="499.11072"
     id="text6747-2"
     sodipodi:linespacing="125%"><tspan
       sodipodi:role="line"
       id="tspan6749-5"
       x="596.28906"
       y="499.11072">Radiocarbon Years Before Present</tspan></text>
  <text
     xml:space="preserve"
     style="font-style:normal;font-variant:normal;font-weight:normal;font-stretch:normal;font-size:40px;line-height:125%;font-family:Sawasdee;-inkscape-font-specification:'Sawasdee, Normal';text-align:start;letter-spacing:0px;word-spacing:0px;writing-mode:lr-tb;text-anchor:start;fill:#000000;fill-opacity:1;stroke:none;stroke-width:1px;stroke-linecap:butt;stroke-linejoin:miter;stroke-opacity:1"
     x="68"
     y="113.26071"
     id="text7289"
     sodipodi:linespacing="125%"><tspan
       sodipodi:role="line"
       id="tspan7291"
       x="68"
       y="113.26071">Direct</tspan><tspan
       sodipodi:role="line"
       x="68"
       y="163.26071"
       id="tspan7293">Recalibration</tspan></text>
</svg>
